<?xml version="1.0" standalone="no"?>
<!DOCTYPE svg PUBLIC "-//W3C//DTD SVG 20010904//EN"
 "http://www.w3.org/TR/2001/REC-SVG-20010904/DTD/svg10.dtd">
<svg version="1.0" xmlns="http://www.w3.org/2000/svg"
 width="24.000000pt" height="24.000000pt" viewBox="0 0 24.000000 24.000000"
 preserveAspectRatio="xMidYMid meet">
<metadata>
Created by potrace 1.16, written by Peter Selinger 2001-2019
</metadata>
<g transform="translate(0.000000,24.000000) scale(0.100000,-0.100000)"
fill="#000000" stroke="none">
<path d="M40 120 l0 -100 81 0 81 0 -3 38 c-2 21 0 43 5 50 4 7 4 17 0 24 -5
7 -7 29 -5 50 l3 38 -81 0 -81 0 0 -100z m143 54 c3 -18 1 -24 -9 -20 -8 3
-14 -1 -14 -9 0 -9 -10 -15 -25 -15 -14 0 -25 -4 -25 -10 0 -5 11 -10 25 -10
15 0 25 -6 25 -15 0 -8 6 -12 14 -9 10 4 12 -2 9 -20 -5 -24 -9 -26 -64 -26
l-59 0 0 80 0 80 59 0 c55 0 59 -2 64 -26z"/>
</g>
</svg>
